<!--
  - Copyright (c) Exathink, LLC  2016-2025.
  - All rights reserved
  -
  -->

<svg xmlns="http://www.w3.org/2000/svg" version="1.1" viewBox="-5.0 -10.0 110.0 135.0">
 <g>
  <path d="m41.668 8.332h-25c-3.8281 0-6.9453 3.1172-6.9453 6.9453v16.668c0 3.8281 3.1172 6.9453 6.9453 6.9453h25c3.8281 0 6.9453-3.1172 6.9453-6.9453v-16.668c0-3.8281-3.1172-6.9453-6.9453-6.9453zm4.1641 23.613c0 2.2969-1.8672 4.168-4.168 4.168l-24.996-0.003906c-2.2969 0-4.168-1.8672-4.168-4.168v-16.668c0-2.2969 1.8672-4.168 4.168-4.168h25c2.2969 0 4.168 1.8672 4.168 4.168v16.668z"/>
  <path d="m41.668 41.668h-25c-3.8281 0-6.9453 3.1172-6.9453 6.9453v36.109c0 3.8281 3.1172 6.9453 6.9453 6.9453h25c3.8281 0 6.9453-3.1172 6.9453-6.9453v-36.109c0-3.8281-3.1172-6.9453-6.9453-6.9453zm4.1641 43.055c0 2.2969-1.8672 4.168-4.168 4.168h-24.996c-2.2969 0-4.168-1.8672-4.168-4.168v-36.109c0-2.2969 1.8672-4.168 4.168-4.168h25c2.2969 0 4.168 1.8672 4.168 4.168v36.109z"/>
  <path d="m86.109 8.332h-30.555c-2.2969 0-4.168 1.8672-4.168 4.168v13.891c0 2.2969 1.8672 4.168 4.168 4.168h30.555c2.2969 0 4.168-1.8672 4.168-4.168v-13.891c0-2.2969-1.8672-4.168-4.168-4.168zm1.3906 18.059c0 0.76562-0.625 1.3906-1.3906 1.3906h-30.555c-0.76563 0-1.3906-0.625-1.3906-1.3906v-13.891c0-0.76562 0.625-1.3906 1.3906-1.3906h30.555c0.76562 0 1.3906 0.625 1.3906 1.3906z"/>
  <path d="m86.109 33.332h-30.555c-2.2969 0-4.168 1.8672-4.168 4.168v13.891c0 2.2969 1.8672 4.168 4.168 4.168h30.555c2.2969 0 4.168-1.8672 4.168-4.168v-13.891c0-2.2969-1.8672-4.168-4.168-4.168zm1.3906 18.059c0 0.76562-0.625 1.3906-1.3906 1.3906h-30.555c-0.76563 0-1.3906-0.625-1.3906-1.3906v-13.891c0-0.76562 0.625-1.3906 1.3906-1.3906h30.555c0.76562 0 1.3906 0.625 1.3906 1.3906z"/>
  <path d="m86.109 58.332h-30.555c-2.2969 0-4.168 1.8672-4.168 4.168v23.609c0 2.2969 1.8672 4.168 4.168 4.168h30.555c2.2969 0 4.168-1.8672 4.168-4.168v-23.609c0-2.2969-1.8672-4.168-4.168-4.168zm1.3906 27.777c0 0.76562-0.625 1.3906-1.3906 1.3906h-30.555c-0.76563 0-1.3906-0.625-1.3906-1.3906v-23.609c0-0.76562 0.625-1.3906 1.3906-1.3906h30.555c0.76562 0 1.3906 0.625 1.3906 1.3906z"/>
 </g>
 <text>-</text>
</svg>